# Blender v2.78 (sub 0) OBJ File: ''
# www.blender.org
mtllib materials.mtl
o Circle
v 0.000000 -0.750000 -1.000000
v -0.866025 -0.750000 -0.500000
v -0.866025 -0.750000 0.500000
v 0.000000 -0.750000 1.000000
v 0.866025 -0.750000 0.500000
v 0.866025 -0.750000 -0.500000
v 0.000000 0.750000 -1.000000
v -0.866025 0.750000 -0.500000
v -0.866025 0.750000 0.500000
v 0.000000 0.750000 1.000000
v 0.866025 0.750000 0.500000
v 0.866025 0.750000 -0.500000
vn 0.0000 -1.0000 0.0000
vn 0.0000 1.0000 -0.0000
vn 0.5000 0.0000 -0.8660
vn 0.5000 0.0000 0.8660
vn -1.0000 0.0000 0.0000
vn 1.0000 0.0000 0.0000
vn -0.5000 0.0000 0.8660
vn -0.5000 0.0000 -0.8660
usemtl None
s off
f 1//1 5//1 3//1
f 9//2 12//2 7//2
f 1//3 12//3 6//3
f 5//4 10//4 4//4
f 3//5 8//5 2//5
f 6//6 11//6 5//6
f 4//7 9//7 3//7
f 2//8 7//8 1//8
f 3//1 2//1 1//1
f 1//1 6//1 5//1
f 5//1 4//1 3//1
f 7//2 8//2 9//2
f 9//2 10//2 11//2
f 11//2 12//2 9//2
f 1//3 7//3 12//3
f 5//4 11//4 10//4
f 3//5 9//5 8//5
f 6//6 12//6 11//6
f 4//7 10//7 9//7
f 2//8 8//8 7//8
